<svg preserveAspectRatio="none" width="100%" height="100%" overflow="visible" style="display: block;" viewBox="0 0 34 34" fill="none" xmlns="http://www.w3.org/2000/svg">
<g id="hierarchy-2">
<path id="Vector" d="M7.05449 21.1635V11.2872" stroke="var(--stroke-0, white)" stroke-width="2.11635" stroke-linecap="round" stroke-linejoin="round"/>
<path id="Vector_2" d="M7.40722 31.0398C9.93967 31.0398 11.9926 28.9868 11.9926 26.4543C11.9926 23.9219 9.93967 21.8689 7.40722 21.8689C4.87476 21.8689 2.8218 23.9219 2.8218 26.4543C2.8218 28.9868 4.87476 31.0398 7.40722 31.0398Z" stroke="var(--stroke-0, white)" stroke-width="2.11635" stroke-linecap="round" stroke-linejoin="round"/>
<path id="Vector_3" d="M7.05449 11.2872C9.39214 11.2872 11.2872 9.39214 11.2872 7.05449C11.2872 4.71684 9.39214 2.8218 7.05449 2.8218C4.71684 2.8218 2.8218 4.71684 2.8218 7.05449C2.8218 9.39214 4.71684 11.2872 7.05449 11.2872Z" stroke="var(--stroke-0, white)" stroke-width="2.11635" stroke-linecap="round" stroke-linejoin="round"/>
<path id="Vector_4" d="M26.8071 11.2872C29.1447 11.2872 31.0398 9.39214 31.0398 7.05449C31.0398 4.71684 29.1447 2.8218 26.8071 2.8218C24.4694 2.8218 22.5744 4.71684 22.5744 7.05449C22.5744 9.39214 24.4694 11.2872 26.8071 11.2872Z" stroke="var(--stroke-0, white)" stroke-width="2.11635" stroke-linecap="round" stroke-linejoin="round"/>
<path id="Vector_5" d="M7.23636 21.1635C7.87127 18.6944 10.1287 16.8602 12.7953 16.8743L17.6347 16.8885C21.3312 16.9026 24.4775 14.5322 25.6345 11.2307" stroke="var(--stroke-0, white)" stroke-width="2.11635" stroke-linecap="round" stroke-linejoin="round"/>
<g id="Vector_6" opacity="0">
</g>
</g>
</svg>
