<svg width="279" height="55" viewBox="0 0 279 55" fill="none" xmlns="http://www.w3.org/2000/svg">
<mask id="mask0_216_4281" style="mask-type:luminance" maskUnits="userSpaceOnUse" x="5" y="0" width="50" height="49">
<path d="M12.6242 0C8.78452 0 5.66211 3.11397 5.66211 6.96213V13.8989H39.477C40.0508 13.8989 40.5234 14.3631 40.5234 14.9454V48.7602H47.4602C51.2999 48.7602 54.4223 45.6463 54.4223 41.7981V3.48529C54.4223 1.56121 52.8611 0.00843914 50.9455 0.00843914H12.6242V0Z" fill="white"/>
</mask>
<g mask="url(#mask0_216_4281)">
<path d="M38.7682 -22.7569L-17.0996 15.6543L21.3116 71.5221L77.1794 33.1109L38.7682 -22.7569Z" fill="white"/>
</g>
<path d="M65.3595 19.2999V18.743C65.3595 16.3463 66.2287 14.5826 67.9672 13.4517C69.7056 12.3209 72.0094 11.7471 74.8702 11.7471C77.731 11.7471 80.0433 12.304 81.8155 13.4264C83.5876 14.5404 84.499 16.2535 84.5666 18.5573V18.8864H78.6931V18.6079C78.5412 16.7767 77.2669 15.8568 74.8702 15.8568C72.6001 15.8568 71.4187 16.5995 71.3259 18.0932L71.2837 18.4645V18.6079C71.2837 19.5109 72.3048 20.2873 74.3639 20.9371L79.7226 22.6164C83.4526 23.7979 85.3176 25.8823 85.3176 28.8612V29.0975C85.3176 31.3339 84.3725 33.1482 82.4737 34.5322C80.5749 35.9162 78.0433 36.6082 74.8702 36.6082C71.6972 36.6082 69.368 35.9668 67.503 34.6757C65.638 33.3845 64.6422 31.6883 64.5156 29.5701V28.7769H70.2963V29.4773C70.3554 30.5068 70.7858 31.3001 71.579 31.8824C72.3723 32.4562 73.4693 32.7432 74.8618 32.7432C76.2542 32.7432 77.2416 32.5069 77.9842 32.0427C78.7268 31.5786 79.1319 30.9372 79.1994 30.1271L79.2922 29.7558V29.5195C79.2922 28.8697 79.0897 28.3549 78.6846 27.9836C78.2795 27.6123 77.7057 27.3 76.9631 27.0553L70.2457 24.8612C66.9798 23.7726 65.3511 21.9244 65.3511 19.3168" fill="white"/>
<path d="M105.689 12.5397H112.026V35.8481H106.288V33.0041C104.794 35.4008 102.262 36.5907 98.6842 36.5907C96.0091 36.5907 93.8909 35.8227 92.3213 34.2868C90.7516 32.751 89.9668 30.3965 89.9668 27.2235V12.5397H96.2622V25.3584C96.2622 27.5948 96.5914 29.1644 97.2412 30.0674C97.891 30.9703 99.0471 31.4176 100.693 31.4176C102.338 31.4176 103.663 30.9535 104.465 30.0167C105.267 29.08 105.68 27.5273 105.68 25.35V12.5312L105.689 12.5397Z" fill="white"/>
<path d="M122.424 12.5403L122.66 15.5277C124.373 13.0129 126.812 11.7471 129.976 11.7471C132.804 11.7471 135.175 12.7597 137.091 14.7767C138.998 16.7936 139.96 19.5193 139.96 22.9371V25.5447C139.96 29.241 139.091 32.009 137.352 33.8402C135.614 35.6715 133.386 36.6082 130.685 36.642C127.36 36.642 124.981 35.4268 123.554 33.0048V44.2454H117.217V12.5403H122.441H122.424ZM133.614 25.5532V22.9456C133.614 21.0468 133.175 19.6037 132.306 18.6079C131.436 17.6121 130.179 17.1142 128.533 17.1142C126.888 17.1142 125.681 17.6121 124.829 18.6079C123.976 19.6037 123.546 21.0468 123.546 22.9456V25.5532C123.546 27.8233 123.934 29.4013 124.711 30.2874C125.487 31.1735 126.761 31.6123 128.533 31.6123C130.306 31.6123 131.631 31.1735 132.424 30.2874C133.217 29.4013 133.614 27.8233 133.614 25.5532Z" fill="white"/>
<path d="M144.01 25.5954V23.0299C144.01 19.2409 145.048 16.4054 147.132 14.5404C149.217 12.6754 152.027 11.7471 155.571 11.7471C159.115 11.7471 161.993 12.6754 164.103 14.5404C166.213 16.4054 167.276 19.2324 167.276 23.0299V24.5236L167.234 25.4097H150.356V26.6249C150.356 28.5237 150.803 29.9668 151.706 30.9625C152.609 31.9583 153.9 32.4562 155.58 32.4562C156.98 32.4562 158.103 32.1102 158.964 31.4098C159.816 30.7094 160.356 29.722 160.575 28.4477H166.871C166.314 30.9372 165.048 32.9204 163.073 34.3888C161.099 35.8571 158.618 36.5998 155.639 36.5998C152.061 36.5998 149.233 35.5787 147.157 33.5196C145.073 31.4689 144.035 28.8275 144.035 25.5954M150.356 21.9582H160.938C160.938 19.7809 160.508 18.2282 159.656 17.2999C158.803 16.3632 157.445 15.899 155.58 15.899C153.715 15.899 152.457 16.3632 151.613 17.2999C150.778 18.2282 150.356 19.7894 150.356 21.9582Z" fill="white"/>
<path d="M177.581 12.5403V17.013C178.889 13.5614 181.497 11.8061 185.412 11.7471V17.0636C182.99 17.0974 181.176 17.6712 179.978 18.7852C178.779 19.9075 178.18 21.7219 178.18 24.2367V35.8487H171.885V12.5403H177.573H177.581Z" fill="white"/>
<path d="M192.872 12.5403L193.015 16.1775C193.851 14.7513 194.973 13.6543 196.374 12.8863C197.775 12.1268 199.37 11.7471 201.176 11.7471C204.188 11.7471 206.644 12.7513 208.543 14.7513C210.442 16.7598 211.387 19.4181 211.387 22.7515V25.5954C211.387 29.3591 210.501 32.1356 208.728 33.9415C206.956 35.7474 204.577 36.6504 201.598 36.6504C197.716 36.6504 195.024 35.2327 193.53 32.4056V44.2454H189.285V12.5403H192.88H192.872ZM207.142 25.5954V22.7515C207.142 20.4223 206.551 18.5995 205.37 17.2999C204.188 15.9919 202.509 15.3421 200.332 15.3421C198.154 15.3421 196.475 15.9919 195.294 17.2999C194.112 18.6079 193.522 20.4223 193.522 22.7515V25.5954C193.522 28.3634 194.078 30.3296 195.201 31.4942C196.323 32.6588 198.028 33.2411 200.332 33.2411C202.636 33.2411 204.34 32.6588 205.463 31.4942C206.585 30.3296 207.142 28.3634 207.142 25.5954Z" fill="white"/>
<path d="M220.62 18.8358H216.839C217.278 16.4391 218.375 14.6585 220.147 13.4939C221.92 12.3294 224.173 11.7471 226.907 11.7471C233.776 11.7471 237.211 14.8526 237.211 21.0721V35.8487H233.616L233.472 32.0681C232.662 33.4014 231.439 34.4985 229.793 35.3592C228.148 36.2116 226.375 36.642 224.477 36.642C221.742 36.642 219.565 35.95 217.953 34.566C216.333 33.182 215.59 31.3592 215.717 29.0891C215.776 27.5954 216.257 26.3802 217.135 25.4266C218.021 24.4814 219.093 23.8316 220.35 23.4941C221.607 23.1565 222.974 22.8865 224.451 22.7008C225.928 22.5152 227.287 22.4055 228.527 22.3717C229.768 22.3379 230.814 22.186 231.65 21.9076C232.485 21.6291 232.924 21.1734 232.958 20.5573V20.0426C232.958 16.3716 230.932 14.5235 226.899 14.4982C225.034 14.4982 223.59 14.8273 222.561 15.4771C221.531 16.1269 220.882 17.2493 220.603 18.8358M232.975 27.3254V24.1101C232.662 24.3295 232.232 24.4983 231.667 24.6249C231.11 24.7515 230.612 24.8274 230.173 24.8612C229.734 24.8949 229.042 24.954 228.072 25.0468C227.329 25.0806 226.789 25.1059 226.46 25.1144C226.131 25.1312 225.616 25.1819 224.899 25.2747C224.181 25.3675 223.65 25.4688 223.287 25.5785C222.932 25.6882 222.493 25.8485 221.979 26.068C221.464 26.2874 221.093 26.5321 220.856 26.8106C220.62 27.0891 220.409 27.4519 220.223 27.8823C220.038 28.3212 219.945 28.8191 219.945 29.376C219.979 30.5575 220.477 31.5533 221.439 32.3634C222.401 33.1736 223.751 33.5786 225.498 33.5786C227.548 33.5786 229.278 33.0132 230.696 31.874C232.114 30.7431 232.865 29.2241 232.958 27.3254" fill="white"/>
<path d="M244.671 6.94531H248.916V12.5403H253.16V15.2914H248.916V31.241C248.916 31.9246 249.11 32.49 249.498 32.9457C249.886 33.393 250.468 33.6208 251.245 33.6208H253.16V36.4141H249.76C248.241 36.4141 247.008 36.0344 246.08 35.2748C245.143 34.5153 244.679 33.3845 244.679 31.8908V15.2914H241.186V12.5403H244.679V6.94531H244.671Z" fill="white"/>
<path d="M258.055 3.21484H262.299V15.9914C263.793 13.1644 266.451 11.7466 270.274 11.7466C273.169 11.7466 275.338 12.5821 276.806 14.2614C278.266 15.9408 279 18.6919 279 22.5147V35.8482H274.806V22.886C274.806 20.0843 274.376 18.118 273.523 16.9619C272.671 15.8142 271.152 15.2403 268.975 15.2403C266.797 15.2403 265.11 15.8479 263.987 17.0547C262.865 18.2699 262.308 20.2109 262.308 22.886V35.8482H258.063V3.21484H258.055Z" fill="white"/>
<mask id="mask1_216_4281" style="mask-type:luminance" maskUnits="userSpaceOnUse" x="0" y="22" width="33" height="33">
<path d="M6.96213 22.1855C3.12241 22.1855 0 25.2995 0 29.1477V34.2364H19.1395C19.7134 34.2364 20.186 34.7005 20.186 35.2828V54.4223H25.2746C29.1144 54.4223 32.2368 51.3083 32.2368 47.4602V25.6708C32.2368 23.7468 30.6756 22.194 28.7599 22.194H6.97057L6.96213 22.1855Z" fill="white"/>
</mask>
<g mask="url(#mask1_216_4281)">
<path d="M32.2361 22.1855H0.0078125V54.4139H32.2361V22.1855Z" fill="white"/>
</g>
</svg>
