<svg width="179" height="35" viewBox="0 0 179 35" fill="none" xmlns="http://www.w3.org/2000/svg">
<path d="M41.2454 12.1791V11.8276C41.2454 10.3152 41.7939 9.20221 42.8909 8.48862C43.988 7.77502 45.4418 7.4129 47.2471 7.4129C49.0523 7.4129 50.5115 7.76437 51.6298 8.47264C52.7481 9.18091 53.3232 10.2566 53.3658 11.7104V11.9181H49.6594V11.7424C49.5636 10.5868 48.7594 10.0063 47.2471 10.0063C45.8145 10.0063 45.069 10.475 45.0104 11.4175L44.9838 11.6519V11.7424C44.9838 12.3122 45.6282 12.8021 46.9275 13.2122L50.3091 14.2719C52.6629 15.0175 53.8398 16.3328 53.8398 18.2126V18.3618C53.8398 19.773 53.2434 20.9179 52.0452 21.7913C50.847 22.6646 49.2494 23.1013 47.2471 23.1013C45.2447 23.1013 43.7749 22.6912 42.5981 21.8818C41.4212 21.067 40.7928 19.9966 40.7129 18.66V18.1594H44.3607V18.6014C44.398 19.2458 44.6696 19.7517 45.1702 20.1191C45.6708 20.4812 46.3631 20.6623 47.2417 20.6623C48.1204 20.6623 48.7435 20.5132 49.2121 20.2203C49.6861 19.9274 49.9363 19.5227 49.9789 19.0114L50.0375 18.7771V18.628C50.0375 18.218 49.9097 17.8931 49.6541 17.6588C49.3985 17.4245 49.0364 17.2275 48.5677 17.0677L44.3288 15.6831C42.2679 14.9962 41.2401 13.8299 41.2401 12.1844" fill="#2A256D"/>
<path d="M66.6945 7.91345H70.6938V22.622H67.0726V20.8273C66.13 22.3397 64.5324 23.0906 62.2745 23.0906C60.5864 23.0906 59.2497 22.606 58.2592 21.6368C57.2687 20.6676 56.7734 19.1818 56.7734 17.1795V7.91345H60.7461V16.0026C60.7461 17.4138 60.9538 18.4043 61.3639 18.9741C61.7739 19.5439 62.5035 19.8262 63.5419 19.8262C64.5804 19.8262 65.4164 19.5333 65.9223 18.9422C66.4336 18.3564 66.6892 17.3712 66.6892 16.0026V7.91345H66.6945Z" fill="#2A256D"/>
<path d="M77.2545 7.91348L77.4036 9.79865C78.4846 8.2117 80.0236 7.4129 82.0206 7.4129C83.8046 7.4129 85.301 8.05194 86.5099 9.32469C87.7134 10.5974 88.3205 12.3175 88.3205 14.4743V16.1198C88.3205 18.4523 87.772 20.199 86.675 21.3546C85.5779 22.5102 84.1721 23.1013 82.468 23.1173C80.3698 23.1173 78.868 22.3504 77.9681 20.8221V27.9154H73.9688V7.90816H77.2651L77.2545 7.91348ZM84.3158 16.1251V14.4796C84.3158 13.2814 84.0389 12.3708 83.4904 11.7424C82.9419 11.114 82.1484 10.7998 81.11 10.7998C80.0716 10.7998 79.31 11.114 78.7722 11.7424C78.2343 12.3708 77.9627 13.2814 77.9627 14.4796V16.1251C77.9627 17.5576 78.2077 18.5535 78.6976 19.1126C79.1876 19.6718 79.9917 19.9487 81.11 19.9487C82.2283 19.9487 83.0644 19.6718 83.565 19.1126C84.0655 18.5535 84.3158 17.5576 84.3158 16.1251Z" fill="#2A256D"/>
<path d="M90.877 16.1517V14.5329C90.877 12.1418 91.532 10.3525 92.8473 9.17558C94.1627 7.99869 95.936 7.4129 98.1726 7.4129C100.409 7.4129 102.225 8.00401 103.557 9.17558C104.888 10.3525 105.559 12.1365 105.559 14.5329V15.4754L105.532 16.0346H94.8816V16.8014C94.8816 17.9996 95.1638 18.9103 95.7336 19.5387C96.3035 20.167 97.1182 20.4812 98.178 20.4812C99.062 20.4812 99.7702 20.2576 100.313 19.8209C100.851 19.3789 101.192 18.7558 101.331 17.9517H105.303C104.952 19.5227 104.153 20.7741 102.907 21.7007C101.661 22.6273 100.095 23.096 98.2152 23.096C95.9573 23.096 94.1733 22.4516 92.8633 21.1522C91.5479 19.8582 90.8929 18.1913 90.8929 16.1517M94.8816 13.8565H101.56C101.56 12.4826 101.288 11.5027 100.75 10.917C100.212 10.3259 99.3549 10.033 98.178 10.033C97.0011 10.033 96.2076 10.3259 95.6751 10.917C95.1479 11.5027 94.8816 12.4879 94.8816 13.8565Z" fill="#2A256D"/>
<path d="M112.059 7.91348V10.7359C112.885 8.55785 114.53 7.45018 117.001 7.4129V10.7679C115.473 10.7892 114.328 11.1513 113.572 11.8542C112.816 12.5625 112.438 13.7074 112.438 15.2944V22.622H108.465V7.91348H112.054H112.059Z" fill="#2A256D"/>
<path d="M121.711 7.91347L121.801 10.2087C122.328 9.3087 123.037 8.61641 123.921 8.13713C124.805 7.65785 125.811 7.41821 126.951 7.41821C128.852 7.41821 130.401 8.05192 131.6 9.31403C132.798 10.5815 133.394 12.2589 133.394 14.3624V16.1571C133.394 18.5322 132.835 20.2842 131.717 21.4238C130.598 22.5634 129.097 23.1279 127.217 23.1279C124.767 23.1279 123.068 22.2332 122.126 20.4493V27.9207H119.447V7.91347H121.711ZM130.716 16.1517V14.3571C130.716 12.8873 130.343 11.737 129.597 10.9169C128.852 10.0915 127.792 9.68147 126.418 9.68147C125.044 9.68147 123.984 10.0915 123.239 10.9169C122.493 11.7424 122.121 12.8873 122.121 14.3571V16.1517C122.121 17.8984 122.472 19.1392 123.18 19.8741C123.889 20.609 124.964 20.9765 126.418 20.9765C127.872 20.9765 128.948 20.609 129.656 19.8741C130.364 19.1392 130.716 17.8984 130.716 16.1517Z" fill="#2A256D"/>
<path d="M139.22 11.8862H136.834C137.111 10.3738 137.803 9.25014 138.922 8.51524C140.04 7.78035 141.462 7.4129 143.187 7.4129C147.522 7.4129 149.689 9.37262 149.689 13.2974V22.622H147.421L147.33 20.2416C146.819 21.083 146.047 21.7753 145.009 22.3131C143.97 22.851 142.852 23.1226 141.654 23.1226C139.928 23.1226 138.554 22.6859 137.537 21.8126C136.515 20.9392 136.046 19.7889 136.126 18.3564C136.163 17.4139 136.467 16.647 137.021 16.0452C137.58 15.4488 138.256 15.0388 139.05 14.8257C139.843 14.6127 140.706 14.4423 141.638 14.3252C142.57 14.208 143.427 14.1388 144.21 14.1175C144.993 14.0962 145.653 14.0003 146.18 13.8246C146.707 13.6489 146.984 13.3666 147.006 12.9725V12.6477C147.006 10.3312 145.727 9.16493 143.182 9.14896C142.005 9.14896 141.094 9.35665 140.445 9.76669C139.795 10.1767 139.385 10.885 139.209 11.8862M147.016 17.2434V15.2145C146.819 15.353 146.548 15.4595 146.191 15.5393C145.834 15.6192 145.525 15.6671 145.248 15.6884C144.971 15.7097 144.535 15.747 143.922 15.8056C143.454 15.8269 143.113 15.8429 142.905 15.8482C142.697 15.8589 142.373 15.8908 141.92 15.9494C141.467 16.008 141.132 16.0719 140.903 16.1411C140.679 16.2103 140.402 16.3115 140.077 16.45C139.752 16.5884 139.518 16.7429 139.369 16.9186C139.22 17.0943 139.087 17.3233 138.97 17.5949C138.852 17.8718 138.794 18.186 138.794 18.5375C138.815 19.283 139.124 19.9114 139.736 20.4227C140.344 20.9339 141.196 21.1895 142.298 21.1895C143.592 21.1895 144.684 20.8327 145.578 20.1138C146.473 19.4002 146.947 18.4416 147.006 17.2434" fill="#2A256D"/>
<path d="M154.397 4.38275H157.075V7.91344H159.754V9.64949H157.075V19.709C157.075 20.1404 157.198 20.4972 157.443 20.7847C157.688 21.067 158.055 21.2108 158.545 21.2108H159.754V22.9788H157.608C156.649 22.9788 155.872 22.7391 155.286 22.2598C154.7 21.7806 154.402 21.067 154.402 20.1297V9.65482H152.197V7.91876H154.402V4.38808L154.397 4.38275Z" fill="#2A256D"/>
<path d="M162.844 2.02899H165.522V10.0915C166.465 8.30754 168.142 7.41289 170.555 7.41289C172.381 7.41289 173.75 7.94009 174.677 8.99983C175.598 10.0596 176.061 11.7956 176.061 14.208V22.622H173.415V14.4423C173.415 12.6743 173.143 11.4335 172.605 10.7039C172.067 9.97969 171.109 9.61757 169.735 9.61757C168.361 9.61757 167.296 10.001 166.587 10.7625C165.879 11.5294 165.528 12.7542 165.528 14.4423V22.622H162.849V2.02899H162.844Z" fill="#2A256D"/>
<mask id="mask0_250_505" style="mask-type:luminance" maskUnits="userSpaceOnUse" x="3" y="0" width="32" height="31">
<path d="M7.96761 2.28882e-05C5.54459 2.28882e-05 3.57422 1.96507 3.57422 4.39341V8.77082H24.9128C25.2749 8.77082 25.5731 9.06372 25.5731 9.43116V30.7697H29.9505C32.3735 30.7697 34.3439 28.8047 34.3439 26.3817V2.19938C34.3439 0.985207 33.3587 0.00534833 32.1499 0.00534833H7.96761V2.28882e-05Z" fill="white"/>
</mask>
<g mask="url(#mask0_250_505)">
<path d="M24.4658 -14.3606L-10.7891 9.87844L13.45 45.1333L48.7048 20.8942L24.4658 -14.3606Z" fill="url(#paint0_linear_250_505)"/>
</g>
<mask id="mask1_250_505" style="mask-type:luminance" maskUnits="userSpaceOnUse" x="0" y="14" width="21" height="21">
<path d="M4.39339 14.0003C1.97037 14.0003 0 15.9653 0 18.3937V21.6049H12.0778C12.4399 21.6049 12.7382 21.8978 12.7382 22.2652V34.343H15.9493C18.3723 34.343 20.3427 32.378 20.3427 29.9496V16.1997C20.3427 14.9855 19.3575 14.0056 18.1487 14.0056H4.39871L4.39339 14.0003Z" fill="white"/>
</mask>
<g mask="url(#mask1_250_505)">
<path d="M20.3374 14.0003H0V34.3377H20.3374V14.0003Z" fill="url(#paint1_linear_250_505)"/>
</g>
<path d="M179 6.92299C179 8.01468 178.19 8.82413 177.098 8.82413C176.007 8.82413 175.197 8.01468 175.197 6.92299C175.197 5.8313 176.007 5.02185 177.098 5.02185C178.19 5.02185 179 5.8313 179 6.92299ZM178.611 6.92299C178.611 6.02834 177.961 5.37865 177.098 5.37865C176.236 5.37865 175.581 6.02834 175.581 6.92299C175.581 7.81764 176.23 8.46733 177.098 8.46733C177.966 8.46733 178.611 7.81764 178.611 6.92299ZM177.519 7.17328L178.009 7.89752H177.53L177.12 7.21055H176.758V7.89752H176.353V5.95378H177.221C177.705 5.95378 177.95 6.17212 177.95 6.58217C177.95 6.90701 177.807 7.09872 177.524 7.1786M177.205 6.86441C177.429 6.86441 177.54 6.77388 177.54 6.59282C177.54 6.41176 177.429 6.3159 177.205 6.3159H176.758V6.86441H177.205Z" fill="#2A256D"/>
<defs>
<linearGradient id="paint0_linear_250_505" x1="-3.32376" y1="-17.3458" x2="30.4975" y2="31.846" gradientUnits="userSpaceOnUse">
<stop stop-color="#EE3624"/>
<stop offset="0.05" stop-color="#ED332A"/>
<stop offset="0.27" stop-color="#EC2A44"/>
<stop offset="0.51" stop-color="#EA2457"/>
<stop offset="0.75" stop-color="#EA2063"/>
<stop offset="1" stop-color="#EA1F67"/>
</linearGradient>
<linearGradient id="paint1_linear_250_505" x1="7.17134" y1="24.1219" x2="27.5087" y2="24.1219" gradientUnits="userSpaceOnUse">
<stop stop-color="#7751A1"/>
<stop offset="1" stop-color="#7751A1"/>
</linearGradient>
</defs>
</svg>
