<svg width="24" height="19" viewBox="0 0 24 19" fill="none" xmlns="http://www.w3.org/2000/svg">
<path d="M0.899859 1C1.39853 1 1.79972 1.40125 1.79972 1.9V6.7C1.79972 6.865 1.9347 7 2.09967 7H2.39963V1.9C2.39963 1.40125 2.80081 1 3.29948 1C3.79816 1 4.19934 1.40125 4.19934 1.9V7H4.4993C4.66427 7 4.79925 6.865 4.79925 6.7V1.9C4.79925 1.40125 5.20044 1 5.69911 1C6.19778 1 6.59897 1.40125 6.59897 1.9V6.7C6.59897 7.85875 5.65787 8.8 4.4993 8.8H4.19934V18.1C4.19934 18.5988 3.79816 19 3.29948 19C2.80081 19 2.39963 18.5988 2.39963 18.1V8.8H2.09967C0.941103 8.8 0 7.85875 0 6.7V1.9C0 1.40125 0.401187 1 0.899859 1ZM20.9967 6.4V10.6H22.1965V3.595C21.5741 4.16875 20.9967 5.06125 20.9967 6.4ZM22.1965 12.4H20.3968C19.7332 12.4 19.197 11.8638 19.197 11.2V6.4C19.197 2.62 22.354 1.27 22.9877 1.0375C23.0626 1.01125 23.1376 1 23.2164 1C23.6476 1 24 1.34875 24 1.78375L23.9963 18.1C23.9963 18.5988 23.5951 19 23.0964 19C22.5977 19 22.1965 18.5988 22.1965 18.1V12.4ZM12.598 18.4C9.92095 18.4 7.53632 17.1475 5.99906 15.1975V10.3L6.00656 10.2963C6.16404 13.8025 9.05484 16.5963 12.598 16.5963C15.0239 16.5963 17.1461 15.2875 18.2934 13.3338C18.7208 13.7575 19.2795 14.05 19.8981 14.155C18.4509 16.69 15.725 18.3963 12.598 18.3963V18.4ZM8.39869 2.725C9.63225 2.00875 11.0683 1.6 12.598 1.6C14.6265 1.6 16.4862 2.32 17.9409 3.51625C17.701 4.105 17.521 4.7725 17.446 5.51875C16.2387 4.2175 14.5177 3.4 12.6018 3.4C11.0083 3.4 9.54226 3.96625 8.40244 4.9075L8.39869 2.725ZM12.598 14.8C11.3252 14.8 10.1045 14.2943 9.20445 13.3941C8.30442 12.4939 7.79878 11.273 7.79878 10C7.79878 8.72696 8.30442 7.50606 9.20445 6.60589C10.1045 5.70571 11.3252 5.2 12.598 5.2C13.8709 5.2 15.0916 5.70571 15.9916 6.60589C16.8916 7.50606 17.3973 8.72696 17.3973 10C17.3973 11.273 16.8916 12.4939 15.9916 13.3941C15.0916 14.2943 13.8709 14.8 12.598 14.8ZM15.5976 10C15.5976 9.20435 15.2815 8.44129 14.719 7.87868C14.1565 7.31607 13.3936 7 12.598 7C11.8025 7 11.0396 7.31607 10.477 7.87868C9.91452 8.44129 9.5985 9.20435 9.5985 10C9.5985 10.7956 9.91452 11.5587 10.477 12.1213C11.0396 12.6839 11.8025 13 12.598 13C13.3936 13 14.1565 12.6839 14.719 12.1213C15.2815 11.5587 15.5976 10.7956 15.5976 10Z" fill="black"/>
</svg>
