<?xml version="1.0" encoding="UTF-8"?> <svg xmlns="http://www.w3.org/2000/svg" id="Layer_1" viewBox="0 0 315.9 66.1"><defs><style> .cls-1 { fill: #008990; } .cls-2 { fill: #333; } </style></defs><g><path class="cls-2" d="M91.8,23.7h5.8l6.6,20.8,6.6-20.8h5.8l-9.1,27.1h-6.6l-9.1-27.1Z"></path><path class="cls-2" d="M140.6,45.7v5.1h-16.7v-27.1h16.6v5.1h-11.2v5.8h10.2v5h-10.2v6.1h11.3Z"></path><path class="cls-2" d="M158.4,41.4h-4.1v9.4h-5.3v-27.1h10.8c5,0,9,4,9,9h0c-.1,3.4-2.1,6.5-5.2,7.9l6,10.2h-5.8l-5.4-9.4ZM154.3,36.7h5.5c2.2-.2,3.8-2.1,3.7-4.3-.2-1.9-1.7-3.5-3.7-3.7h-5.5v8Z"></path><path class="cls-2" d="M182.7,23.7v27.1h-5.3v-27.1h5.3Z"></path><path class="cls-2" d="M216.2,37.3c0,7.5-5.3,13.5-12.8,13.5h-10.4v-27.1h10.4c7.5,0,12.8,6.1,12.8,13.6h0ZM213.5,37.3c0-6.1-4.1-11-10.1-11h-7.7v22h7.7c6-.1,10.1-5,10.1-11Z"></path><path class="cls-2" d="M239.2,44.1h-12.8l-2.5,6.7h-2.9l10.4-27.1h2.8l10.4,27.1h-2.9l-2.5-6.7ZM238.2,41.6l-5.5-14.5-5.5,14.5h11Z"></path><path class="cls-2" d="M270.1,32.2c.1,4.6-3.5,8.4-8.1,8.5h-7.4v10.1h-2.7v-27.1h9.7c4.6-.1,8.4,3.5,8.5,8.1v.4h0ZM267.4,32.2c.2-3.1-2.2-5.8-5.4-6h-7.4v11.9h7c3.1.1,5.7-2.4,5.8-5.6v-.3h0Z"></path><path class="cls-2" d="M294.9,26.3h-8.3v24.5h-2.7v-24.5h-8.3v-2.6h19.3v2.6Z"></path></g><path class="cls-1" d="M22.6,64.5c-.3,0-.6-.2-.8-.5L.1,26c-.3-.4-.1-1,.4-1.3.4-.2,1-.1,1.3.3l21.7,38.1c.3.4.1,1-.3,1.3-.2.1-.4.1-.6.1h0Z"></path><path class="cls-2" d="M33,66.1c-.3,0-.6-.2-.8-.5L4,16.8c-.2-.5,0-1,.4-1.2s.9-.1,1.2.3l27.4,47.4L60.4,15.9c.3-.4.9-.5,1.3-.3.4.3.5.8.3,1.2l-28.2,48.8c-.1.3-.4.5-.8.5h0Z"></path><path class="cls-1" d="M43.4,64.3c-.5,0-.9-.4-.9-.9,0-.2,0-.3.1-.5l21.7-37.8c.3-.4.8-.6,1.3-.3.4.3.6.8.3,1.2l-21.7,37.8c-.2.3-.5.5-.8.5Z"></path><path class="cls-1" d="M33,22.3c-.3,0-.6-.2-.8-.5L21.3,2.9c-.3-.4-.2-1,.3-1.3.4-.3,1-.2,1.3.3,0,0,0,.1.1.1l10,17.5L43.1,2c.2-.5.8-.6,1.2-.4.5.2.6.8.4,1.2,0,0,0,.1-.1.1l-10.8,18.9c-.1.3-.5.5-.8.5h0Z"></path><path class="cls-1" d="M33,9.4c-.3,0-.6-.2-.8-.5l-4.4-7.6C27.5.9,27.6.3,28.1,0c.4-.3,1-.2,1.3.3,0,0,0,.1.1.1l3.5,6.3,3.6-6.2c.2-.5.8-.6,1.2-.4.5.2.6.8.4,1.2,0,0,0,.1-.1.1l-4.3,7.6c-.1.3-.5.4-.8.4h0Z"></path><path class="cls-1" d="M33,51.6c-.3,0-.6-.2-.8-.5L8.9,10.7c-.2-.5,0-1,.4-1.2s.9-.1,1.2.3l22.5,39L55.5,9.8c.3-.4.9-.5,1.3-.3.4.3.5.8.3,1.2l-23.3,40.4c-.1.3-.5.5-.8.5h0Z"></path><path class="cls-1" d="M33,37.1h-.3c-.2-.1-.4-.2-.5-.4L14.6,6.1c-.3-.4-.2-1,.3-1.3.4-.3,1-.2,1.3.3,0,0,0,.1.1.1l16.7,29.1L49.8,5.2c.2-.4.8-.6,1.2-.4.5.2.6.8.4,1.2,0,0,0,.1-.1.1l-17.5,30.5c-.1.3-.4.5-.8.5h0Z"></path><path class="cls-1" d="M66.2,38c-.1,0-.2,0-.2.1l-13,22.5c0,.1,0,.2.1.2h.2l.3-.3c3.1-3.3,5.9-7,8.1-11,1.7-2.9,3-5.9,3.9-9.1.2-.7.4-1.4.7-2.1,0-.2-.1-.3-.1-.3h0Z"></path><path class="cls-1" d="M.2,38c.1,0,.2,0,.2.1l13,22.5c0,.1,0,.2-.1.2h-.2l-.3-.3c-3.1-3.3-5.9-7-8.1-11-1.7-2.9-3-5.9-3.9-9.1-.2-.7-.4-1.4-.7-2.1-.1-.2,0-.3.1-.3H.2Z"></path></svg> 